<svg xmlns="http://www.w3.org/2000/svg" xmlns:xlink="http://www.w3.org/1999/xlink" width="1080" zoomAndPan="magnify" viewBox="0 0 810 809.999993" height="1080" preserveAspectRatio="xMidYMid meet" version="1.0"><path fill="#000000" d="M 405 0 C 181.324219 0 0 181.324219 0 405 C 0 628.675781 181.324219 810 405 810 C 628.675781 810 810 628.675781 810 405 C 810 181.324219 628.675781 0 405 0 Z M 405 779.324219 C 198.265625 779.324219 30.675781 611.730469 30.675781 405 C 30.675781 198.269531 198.265625 30.675781 405 30.675781 C 611.734375 30.675781 779.324219 198.265625 779.324219 405 C 779.324219 611.734375 611.734375 779.324219 405 779.324219 Z M 405 779.324219 " fill-opacity="1" fill-rule="nonzero"/><path fill="#000000" d="M 357.46875 603.519531 C 347.308594 604.492188 339.195312 605.613281 331.046875 605.996094 C 284.835938 608.183594 250.625 589.964844 229.875 547.484375 C 223.269531 533.953125 214.808594 521.183594 206 508.929688 C 200.710938 501.566406 193.296875 495.652344 186.449219 489.523438 L 186.367188 489.449219 C 182.136719 485.722656 184.003906 478.753906 189.566406 477.820312 C 196.09375 476.722656 202.179688 477.902344 208.113281 479.414062 C 226.695312 484.140625 238.621094 497.3125 248.121094 513.066406 C 269.613281 548.695312 306.621094 563.558594 346.636719 552.941406 C 353.433594 551.140625 356.429688 548.214844 357.90625 540.804688 C 359.632812 532.164062 361.976562 523.644531 364.496094 514.960938 C 364.679688 514.324219 364.832031 513.679688 364.953125 513.027344 C 365.074219 512.371094 365.160156 511.714844 365.210938 511.050781 C 365.265625 510.390625 365.285156 509.726562 365.269531 509.0625 C 365.253906 508.398438 365.207031 507.738281 365.125 507.078125 C 365.042969 506.417969 364.929688 505.765625 364.78125 505.117188 C 364.632812 504.472656 364.453125 503.832031 364.242188 503.203125 C 364.027344 502.574219 363.785156 501.957031 363.507812 501.351562 C 363.234375 500.75 362.929688 500.160156 362.59375 499.585938 C 362.257812 499.011719 361.898438 498.457031 361.503906 497.921875 C 361.113281 497.382812 360.695312 496.867188 360.253906 496.375 C 359.808594 495.878906 359.34375 495.410156 358.851562 494.960938 C 358.359375 494.515625 357.847656 494.09375 357.3125 493.699219 C 356.78125 493.304688 356.226562 492.9375 355.65625 492.597656 C 355.085938 492.257812 354.5 491.949219 353.898438 491.667969 C 353.292969 491.390625 352.679688 491.140625 352.050781 490.925781 C 351.421875 490.707031 350.785156 490.523438 350.140625 490.371094 L 349.917969 490.316406 C 308.394531 480.382812 272.523438 461.882812 249.410156 423.9375 C 237.050781 403.648438 230.9375 381.296875 231.25 358.011719 C 231.605469 331.589844 233.945312 305.113281 236.980469 278.84375 C 239.117188 260.347656 247.683594 243.964844 260.984375 230.664062 C 265.621094 226.027344 266.015625 222.140625 263.777344 216.136719 C 254.617188 191.558594 256.210938 166.929688 264.339844 142.296875 C 266.632812 135.347656 269.886719 134.351562 276.535156 136.445312 C 297.113281 142.921875 312.460938 156.308594 325.953125 172.34375 L 326.089844 172.507812 C 326.933594 173.519531 327.84375 174.464844 328.828125 175.339844 C 329.8125 176.214844 330.855469 177.015625 331.957031 177.734375 C 333.058594 178.457031 334.210938 179.089844 335.40625 179.640625 C 336.605469 180.1875 337.835938 180.648438 339.101562 181.011719 C 340.367188 181.378906 341.652344 181.648438 342.957031 181.824219 C 344.261719 181.996094 345.574219 182.074219 346.890625 182.050781 C 348.207031 182.03125 349.515625 181.910156 350.816406 181.695312 C 352.117188 181.480469 353.390625 181.167969 354.644531 180.761719 C 397.339844 166.757812 462.113281 166.570312 502.382812 180.429688 C 503.640625 180.855469 504.925781 181.1875 506.230469 181.421875 C 507.539062 181.65625 508.859375 181.789062 510.1875 181.824219 C 511.511719 181.859375 512.835938 181.796875 514.15625 181.632812 C 515.472656 181.46875 516.773438 181.207031 518.050781 180.847656 C 519.328125 180.488281 520.574219 180.035156 521.785156 179.484375 C 522.996094 178.9375 524.160156 178.304688 525.273438 177.582031 C 526.386719 176.859375 527.441406 176.058594 528.4375 175.175781 C 529.429688 174.296875 530.355469 173.34375 531.203125 172.324219 L 531.335938 172.171875 C 544.847656 156.140625 560.265625 142.855469 580.824219 136.363281 C 587.722656 134.183594 590.660156 135.839844 592.84375 142.550781 C 600.867188 167.191406 602.234375 191.679688 593.558594 216.511719 C 592.335938 220.007812 592.382812 226.089844 594.558594 228.296875 C 612.996094 246.996094 621.066406 270.210938 623.113281 295.363281 C 625.09375 319.660156 627.234375 344.375 624.976562 368.507812 C 619.109375 431.257812 580.953125 467.808594 522.929688 485.976562 C 517.964844 487.53125 512.921875 488.835938 507.773438 490.050781 C 507.105469 490.210938 506.449219 490.402344 505.800781 490.628906 C 505.152344 490.855469 504.519531 491.113281 503.898438 491.40625 C 503.277344 491.699219 502.675781 492.027344 502.089844 492.382812 C 501.503906 492.738281 500.9375 493.125 500.390625 493.539062 C 499.84375 493.953125 499.320312 494.398438 498.820312 494.867188 C 498.320312 495.335938 497.847656 495.832031 497.398438 496.351562 C 496.953125 496.871094 496.53125 497.414062 496.140625 497.976562 C 495.75 498.539062 495.390625 499.121094 495.058594 499.722656 C 494.730469 500.324219 494.429688 500.941406 494.164062 501.574219 C 493.898438 502.207031 493.667969 502.851562 493.46875 503.507812 C 493.273438 504.164062 493.109375 504.832031 492.980469 505.503906 C 492.851562 506.179688 492.757812 506.855469 492.703125 507.539062 C 492.644531 508.222656 492.621094 508.910156 492.636719 509.59375 C 492.652344 510.28125 492.699219 510.964844 492.785156 511.644531 C 492.871094 512.324219 492.992188 513 493.148438 513.667969 C 493.304688 514.335938 493.496094 514.992188 493.722656 515.640625 C 501.625 538.546875 500.417969 563.015625 500.292969 587.328125 C 500.265625 592.914062 500.246094 598.503906 500.238281 604.101562 C 500.234375 605.253906 500.203125 606.40625 500.144531 607.558594 C 500.085938 608.710938 500 609.859375 499.882812 611.007812 C 499.769531 612.15625 499.625 613.300781 499.453125 614.441406 C 499.28125 615.582031 499.082031 616.71875 498.855469 617.847656 C 498.628906 618.980469 498.371094 620.105469 498.089844 621.222656 C 497.808594 622.34375 497.5 623.453125 497.160156 624.558594 C 496.824219 625.660156 496.460938 626.753906 496.070312 627.839844 C 495.679688 628.925781 495.261719 630 494.820312 631.066406 C 494.375 632.132812 493.90625 633.183594 493.414062 634.226562 C 492.917969 635.269531 492.398438 636.296875 491.851562 637.316406 C 491.308594 638.332031 490.738281 639.335938 490.140625 640.324219 C 489.546875 641.3125 488.929688 642.285156 488.289062 643.242188 C 487.644531 644.203125 486.980469 645.144531 486.292969 646.070312 C 485.601562 646.996094 484.890625 647.902344 484.160156 648.792969 C 483.425781 649.6875 482.671875 650.558594 481.894531 651.410156 C 481.121094 652.265625 480.324219 653.101562 479.507812 653.914062 C 478.691406 654.730469 477.855469 655.523438 477 656.296875 C 476.144531 657.070312 475.269531 657.824219 474.378906 658.554688 C 473.484375 659.285156 472.574219 659.996094 471.648438 660.683594 C 470.71875 661.367188 469.777344 662.03125 468.816406 662.671875 C 467.855469 663.3125 466.882812 663.929688 465.890625 664.519531 C 464.902344 665.113281 463.898438 665.679688 462.878906 666.222656 C 461.863281 666.765625 460.832031 667.285156 459.789062 667.777344 C 458.746094 668.269531 457.691406 668.734375 456.625 669.175781 C 455.558594 669.617188 454.480469 670.03125 453.394531 670.421875 C 452.308594 670.808594 451.214844 671.167969 450.109375 671.503906 C 449.007812 671.839844 447.894531 672.144531 446.773438 672.425781 C 445.65625 672.707031 444.53125 672.957031 443.398438 673.183594 C 442.265625 673.40625 441.132812 673.605469 439.988281 673.773438 C 438.847656 673.941406 437.703125 674.082031 436.554688 674.195312 C 435.40625 674.308594 434.257812 674.394531 433.105469 674.449219 C 431.953125 674.507812 430.800781 674.535156 429.644531 674.535156 L 428.054688 674.535156 C 426.902344 674.535156 425.746094 674.503906 424.59375 674.449219 C 423.4375 674.390625 422.285156 674.308594 421.136719 674.195312 C 419.988281 674.082031 418.839844 673.9375 417.699219 673.769531 C 416.554688 673.601562 415.417969 673.402344 414.285156 673.175781 C 413.152344 672.953125 412.023438 672.699219 410.902344 672.417969 C 409.78125 672.136719 408.667969 671.828125 407.5625 671.496094 C 406.457031 671.160156 405.363281 670.796875 404.273438 670.40625 C 403.1875 670.019531 402.109375 669.601562 401.042969 669.160156 C 399.972656 668.71875 398.917969 668.25 397.875 667.757812 C 396.828125 667.261719 395.796875 666.742188 394.777344 666.199219 C 393.761719 665.652344 392.753906 665.085938 391.765625 664.492188 C 390.773438 663.898438 389.796875 663.277344 388.835938 662.636719 C 387.875 661.996094 386.933594 661.332031 386.003906 660.640625 C 385.078125 659.953125 384.167969 659.242188 383.273438 658.511719 C 382.378906 657.777344 381.503906 657.023438 380.648438 656.246094 C 379.792969 655.472656 378.957031 654.675781 378.140625 653.859375 C 377.324219 653.039062 376.527344 652.203125 375.75 651.347656 C 374.976562 650.492188 374.21875 649.617188 373.488281 648.726562 C 372.753906 647.832031 372.042969 646.921875 371.355469 645.992188 C 370.667969 645.066406 370.003906 644.121094 369.359375 643.160156 C 368.71875 642.199219 368.101562 641.222656 367.507812 640.234375 C 366.914062 639.242188 366.34375 638.238281 365.800781 637.21875 C 365.253906 636.199219 364.734375 635.167969 364.242188 634.125 C 363.746094 633.078125 363.28125 632.023438 362.835938 630.957031 C 362.394531 629.890625 361.980469 628.8125 361.589844 627.722656 C 361.203125 626.636719 360.839844 625.539062 360.503906 624.433594 C 360.167969 623.328125 359.859375 622.214844 359.578125 621.09375 C 359.300781 619.972656 359.046875 618.847656 358.820312 617.714844 C 358.59375 616.582031 358.398438 615.441406 358.226562 614.300781 C 358.058594 613.15625 357.917969 612.011719 357.804688 610.859375 C 357.691406 609.710938 357.605469 608.558594 357.550781 607.40625 C 357.492188 606.25 357.464844 605.097656 357.464844 603.941406 Z M 357.46875 603.519531 " fill-opacity="1" fill-rule="nonzero"/></svg>