<svg xmlns="http://www.w3.org/2000/svg" xmlns:xlink="http://www.w3.org/1999/xlink" width="1080" zoomAndPan="magnify" viewBox="0 0 810 809.999993" height="1080" preserveAspectRatio="xMidYMid meet" version="1.0"><defs><clipPath id="c25d53400f"><path d="M 5 2.535156 L 805.546875 2.535156 L 805.546875 807.285156 L 5 807.285156 Z M 5 2.535156 " clip-rule="nonzero"/></clipPath></defs><g clip-path="url(#c25d53400f)"><path fill="#fcb01c" d="M 774.625 380.4375 L 507.542969 375.730469 C 553.292969 324.386719 595.949219 270.277344 634.921875 213.40625 C 654.515625 183.996094 673.207031 154.289062 688.875 122.222656 L 688.1875 121.53125 C 671.855469 129.394531 656.457031 138.183594 641.304688 147.226562 C 567.996094 191.75 499.902344 244.535156 436.039062 301.742188 L 436.039062 33.523438 C 436.039062 16.414062 422.167969 2.542969 405.046875 2.542969 C 387.929688 2.542969 374.058594 16.414062 374.058594 33.523438 L 374.058594 306.816406 C 330.457031 271.710938 285.167969 238.523438 238.101562 208.121094 C 193.117188 179.394531 147.269531 152.292969 97.78125 131.402344 L 97.125 132.144531 C 106.046875 148.175781 115.855469 163.210938 125.902344 177.980469 C 150.902344 214.460938 178.183594 248.9375 206.878906 282.398438 C 233.796875 313.121094 261.710938 342.960938 290.5 371.910156 L 36.5625 367.433594 C 19.511719 367.320312 5.335938 380.757812 5.03125 397.863281 C 4.730469 414.972656 18.355469 429.082031 35.472656 429.382812 L 302.148438 434.082031 C 262.996094 476.792969 225.746094 521.429688 191.414062 568.191406 C 160.441406 610.847656 131.027344 654.449219 107.519531 702 L 108.210938 702.691406 C 124.546875 694.835938 139.953125 686.050781 155.109375 677.011719 C 192.558594 654.511719 228.160156 629.640625 262.851562 603.320312 C 301.101562 573.652344 338.207031 542.527344 374.0625 510.054688 L 374.0625 776.296875 C 374.0625 793.40625 387.9375 807.277344 405.054688 807.277344 C 422.171875 807.277344 436.046875 793.40625 436.046875 776.296875 L 436.046875 503.402344 C 495.390625 551.367188 557.859375 595.46875 623.4375 634.875 C 654.34375 652.902344 685.503906 670 718.863281 683.902344 L 719.519531 683.164062 C 710.589844 667.136719 700.777344 652.105469 690.726562 637.34375 C 640.949219 565.445312 583.019531 499.394531 520.84375 437.9375 L 773.539062 442.390625 C 773.730469 442.394531 773.910156 442.394531 774.097656 442.394531 C 790.953125 442.394531 804.773438 428.882812 805.070312 411.960938 C 805.367188 394.851562 791.742188 380.738281 774.625 380.4375 Z M 774.625 380.4375 " fill-opacity="1" fill-rule="nonzero"/></g></svg>